HIERARCHY
ROOT Hips
{
  OFFSET 6.99165 101.082 -196.201
  CHANNELS 6 Xposition Yposition Zposition Zrotation Xrotation Yrotation
  JOINT RightUpLeg
  {
    OFFSET -8.9458 -8.66707 0.101652
    CHANNELS 3 Zrotation Xrotation Yrotation
    JOINT RightLeg
    {
      OFFSET 0 -44.4227 1.3727
      CHANNELS 3 Zrotation Xrotation Yrotation
      JOINT RightFoot
      {
        OFFSET 0.253549 -42.0924 -1.46059
        CHANNELS 3 Zrotation Xrotation Yrotation
        JOINT RightToes
        {
          OFFSET 0.04 -4.41509 8.4991
          CHANNELS 3 Zrotation Xrotation Yrotation
          End Site
          {
            OFFSET -0.08 -0.137448 9.77979
          }
        }
      }
    }
  }
  JOINT Spine
  {
    OFFSET 0 11.8905 0
    CHANNELS 3 Zrotation Xrotation Yrotation
    JOINT Spine1
    {
      OFFSET 0 25.6574 0.127663
      CHANNELS 3 Zrotation Xrotation Yrotation
      JOINT HEad
      {
        OFFSET 0 8.73416 0.011341
        CHANNELS 3 Zrotation Xrotation Yrotation
        End Site
        {
          OFFSET -0.29 12.7742 2.51395
        }
      }
      JOINT LeftShoulder1
      {
        OFFSET 8.99 -0.362252 -0.22
        CHANNELS 3 Zrotation Xrotation Yrotation
        JOINT LeftArm
        {
          OFFSET 10.2827 -0.00338 0.322123
          CHANNELS 3 Zrotation Xrotation Yrotation
          JOINT LeftForeArm
          {
            OFFSET 32.7669 0.099144 -1.42434
            CHANNELS 3 Zrotation Xrotation Yrotation
            JOINT LeftHand
            {
              OFFSET 27.5643 0.085362 1.02216
              CHANNELS 3 Zrotation Xrotation Yrotation
              End Site
              {
                OFFSET 16.7443 -0.6 1.50291
              }
            }
          }
        }
      }
      JOINT RightShoulder
      {
        OFFSET -8.99 -0.362252 -0.22
        CHANNELS 3 Zrotation Xrotation Yrotation
        JOINT RightArm
        {
          OFFSET -10.2827 -0.00338 0.322123
          CHANNELS 3 Zrotation Xrotation Yrotation
          JOINT RightForeArm
          {
            OFFSET -32.8971 0.099144 -1.42434
            CHANNELS 3 Zrotation Xrotation Yrotation
            JOINT RightHand
            {
              OFFSET -27.4921 0.085362 1.02216
              CHANNELS 3 Zrotation Xrotation Yrotation
              End Site
              {
                OFFSET -16.6312 -0.6 1.50291
              }
            }
          }
        }
      }
    }
  }
  JOINT LeftUpLeg
  {
    OFFSET 8.9458 -8.66707 0.101652
    CHANNELS 3 Zrotation Xrotation Yrotation
    JOINT LeftLeg
    {
      OFFSET 0 -44.4227 1.3727
      CHANNELS 3 Zrotation Xrotation Yrotation
      JOINT LeftFoot
      {
        OFFSET -0.253549 -42.0924 -1.46059
        CHANNELS 3 Zrotation Xrotation Yrotation
        JOINT LeftToes
        {
          OFFSET -0.04 -4.41509 8.4991
          CHANNELS 3 Zrotation Xrotation Yrotation
          End Site
          {
            OFFSET 0.08 -0.047448 9.77979
          }
        }
      }
    }
  }
}
MOTION
Frames:	7
Frame Time:	0.0166667
6.99165 101.082 -196.201 2.2701 -0.19313 -11.8011 -3.25893 10.0216 -0.544524 -0.942527 19.895 13.1899 -7.28257 -5.65298 -0.329387 0.0462048 0.000533964 0.662642 0.462073 4.03261 -2.51151 -12.5172 -0.569767 -0.289393 5.03375 15.5377 19.2527 -1.39149e-015 -1.59028e-015 -3.18055e-015 -76.4718 -51.1111 -2.93491 -25.3195 12.6276 -4.57437 0.368473 9.90896 -0.00117926 -7.63337 0.568158 27.8427 93.6099 -23.0677 8.26594 21.4264 17.0405 24.5213 -0.369625 9.91382 0.00119886 2.24867 -29.1203 2.99799 -6.62716 32.5661 5.50368 -1.68424 1.5396 0.0945408 -2.748e-012 -3.08506e-011 -8.50767e-011 
7.121 101.333 -194.936 2.52099 -0.538319 -11.853 -3.4981 9.94195 -0.274194 -1.50154 21.5896 12.3902 -6.81014 -3.80494 -0.210465 -1.65574 0.756093 1.52908 -0.0693827 4.0878 -2.53391 -12.9584 -0.422839 -0.249003 5.26283 15.8988 19.3499 -4.77083e-015 -7.95139e-016 -1.59028e-015 -76.7701 -51.0472 -3.88322 -25.2351 12.596 -4.37911 0.368473 9.90896 -0.00117926 -7.55574 0.596382 28.1763 93.9128 -23.2795 8.11271 21.3934 16.8311 23.4815 -0.369625 9.91382 0.00119886 1.56951 -27.9351 1.36818 -7.30173 32.3792 6.6162 -2.06998 0.590443 0.091039 -0.304298 0.40062 0.915929 
7.25931 101.577 -193.669 2.73925 -0.89383 -11.9032 -3.75299 9.66406 -0.113962 -1.99252 23.6381 11.757 -6.38771 -2.01792 -0.100063 -3.15133 1.86192 2.36146 -0.566872 4.14718 -2.54382 -13.3573 -0.270084 -0.208602 5.40371 16.2824 19.3966 3.57812e-015 7.95139e-016 1.59028e-015 -77.131 -50.8975 -4.87369 -25.1428 12.5696 -4.20583 0.368473 9.90896 -0.00117926 -7.5647 0.597239 28.3397 94.3056 -23.3855 8.01547 21.3633 16.6027 22.3618 -0.369625 9.91382 0.00119886 0.99604 -26.7055 -0.129241 -7.98218 32.1565 7.75779 -2.41579 -0.296563 0.0861842 -0.520615 0.543325 1.49868 
7.42449 101.81 -192.397 2.86311 -1.28367 -11.9718 -4.07204 8.87331 -0.157394 -2.33808 26.6354 11.591 -6.12765 -0.455393 -0.0118878 -3.86776 3.92454 2.99042 -0.975301 4.22213 -2.51499 -13.6241 -0.0991433 -0.167584 5.25768 16.7248 19.3071 -9.93923e-016 0 4.77083e-015 -77.6336 -50.5259 -5.92599 -25.0459 12.5674 -4.14483 0.368473 9.90896 -0.00117926 -7.89078 0.500824 28.0405 95.0382 -23.1606 8.13195 21.3403 16.3168 20.9334 -0.369625 9.91382 0.00119886 0.591135 -25.3719 -1.48871 -8.80245 31.7872 9.22089 -2.6863 -0.97068 0.0786699 -0.397284 -0.107094 0.957076 
7.59871 102.011 -191.125 2.94986 -1.67765 -11.9892 -4.39453 7.72203 -0.560826 -2.8099 30.185 11.7897 -5.85515 1.12876 0.0655119 -4.68573 6.52269 3.80219 -1.32455 4.2953 -2.47621 -13.8568 0.0762067 -0.127699 5.08098 17.2106 19.1303 2.38542e-015 -7.95139e-016 -0 -78.2525 -50.0214 -7.12105 -24.9049 12.5536 -4.01278 0.368473 9.90896 -0.00117926 -8.18998 0.406872 27.4749 95.7268 -22.8566 8.21478 21.3477 16.0376 19.5569 -0.369625 9.91382 0.00119886 0.24128 -24.0436 -2.36861 -9.39895 31.4931 10.254 -2.82769 -1.63549 0.0668574 -0.292063 -0.975617 0.331621 
7.77167 102.153 -189.848 3.03795 -2.06386 -11.8531 -4.75262 6.25699 -1.636 -3.64878 34.1555 12.3885 -5.38203 2.9989 0.141839 -6.84281 9.36468 5.38948 -1.60385 4.34672 -2.45719 -14.1534 0.258358 -0.0894984 5.11986 17.749 18.8724 -5.96354e-016 7.95139e-016 -3.18055e-015 -79.0185 -49.4396 -8.62247 -24.6331 12.4829 -3.56854 0.368473 9.90896 -0.00117926 -8.10412 0.41749 26.6612 96.0184 -22.6418 8.06587 21.4453 15.8279 18.4699 -0.369625 9.91382 0.00119886 -0.223118 -22.8083 -2.19118 -9.31914 31.5526 9.87042 -2.73644 -2.50162 0.0457258 -0.533646 -1.62648 0.669478 
7.93871 102.25 -188.597 3.12993 -2.41307 -11.6806 -5.04907 4.4765 -2.99754 -5.01272 38.318 13.3584 -4.86924 4.93686 0.208239 -8.93071 12.6335 7.01339 -1.87955 4.39568 -2.4289 -14.4233 0.411162 -0.0559623 5.20473 18.3016 18.5761 1.98785e-016 -1.59028e-015 1.59028e-015 -79.8323 -48.7247 -10.1944 -24.3725 12.4007 -3.07658 0.368473 9.90896 -0.00117926 -7.8948 0.461702 25.8401 96.0838 -22.541 7.6994 21.5849 15.7055 17.7981 -0.369625 9.91382 0.00119886 -0.744388 -21.6734 -1.72533 -9.05043 31.7367 9.11707 -2.52725 -3.39719 0.0241171 -0.807826 -2.17491 1.15927 
